<svg xmlns="http://www.w3.org/2000/svg" xmlns:xlink="http://www.w3.org/1999/xlink" id="Layer_1" x="0px" y="0px" viewBox="0 0 520.2 88.2" style="enable-background:new 0 0 520.2 88.2;" xml:space="preserve">
<style type="text/css">
	.st0{fill:#FFFFFF;}
</style>
<g>
	<path class="st0" d="M520.2,88.2c-6.8,0-13.7,0-20.5,0c-1.2,0-1.7-0.4-2.2-1.4c-3.9-7.3-7.9-14.6-11.9-21.9   c-0.2-0.4-0.4-0.7-0.7-1.2c-0.3,0.5-0.5,0.8-0.7,1.2c-3.9,7.3-7.9,14.6-11.8,21.9c-0.5,1-1.1,1.3-2.3,1.3c-6.3-0.1-12.6,0-18.9,0   c-0.4,0-0.9,0-1.4,0c-0.1-0.6,0.3-1,0.5-1.3c5.2-8.9,10.4-17.9,15.6-26.8c0.4-0.7,0.7-1.4,1.2-2c0.4-0.6,0.4-1.1,0-1.8   c-3.6-6.3-7.1-12.6-10.7-18.9c-1.6-2.8-3.2-5.7-4.8-8.5c-0.2-0.3-0.4-0.7-0.6-1.2c7.4,0,14.6,0,22,0c3.9,7.4,7.8,14.9,11.8,22.7   c4.1-7.7,8-15.2,12-22.7c7.3,0,14.6,0,22,0c-0.2,0.5-0.4,0.9-0.6,1.2c-5,8.9-10.1,17.9-15.1,26.8c-1.1,1.9-1.1,1.2,0,3   c5.3,9.2,10.7,18.4,16,27.5c0.3,0.6,0.7,1.2,1.1,1.8C520.2,88,520.2,88.1,520.2,88.2z"></path>
	<path class="st0" d="M201.2,88.1c-7.4,0-14.7,0-22.1,0c0-0.5,0-1,0-1.5c0-12.1,0-24.2,0-36.3c0-0.9-0.1-1.8-0.2-2.7   c-0.3-1.9-1.3-2.8-3.1-3c-1.8-0.3-3.7-0.1-5.5,0.2c-3.2,0.5-6.2,1.6-9.4,2.8c0,13.4,0,26.9,0,40.4c-7.4,0-14.7,0-22.1,0   c0-20.2,0-40.3,0-60.3c0.9-0.3,15.7-0.3,17.5-0.1c0.6,2.8,1.2,5.7,1.8,8.7c0.5-0.4,0.8-0.6,1.1-0.9c3.7-3,7.6-5.5,12-7.3   c4.8-2,9.9-2.8,15.1-2.3c1.7,0.2,3.5,0.5,5.1,1.1c5.3,1.8,8.3,5.7,9.3,11.1c0.3,1.6,0.4,3.2,0.4,4.9c0,14.6,0,29.2,0,43.9   C201.3,87.2,201.2,87.6,201.2,88.1z"></path>
	<path class="st0" d="M331.3,47.7c0,13.5,0,26.9,0,40.4c-7.4,0-14.6,0-21.9,0c-0.2-0.9-0.3-59,0-60.5c5.8,0,11.5,0,17.4,0   c0.6,2.8,1.2,5.7,1.9,8.8c0.5-0.4,0.9-0.7,1.2-0.9c4.2-3.4,8.8-6.3,14-8c5.2-1.7,10.5-2.2,15.9-1.1c6.3,1.3,10.4,5.5,11.5,11.9   c0.3,1.6,0.4,3.2,0.4,4.9c0,14.5,0,29.1,0,43.6c0,0.4,0,0.8,0,1.2c-1,0.3-19.3,0.4-22.1,0.1c0-0.5,0-1,0-1.5c0-12.1,0-24.1,0-36.2   c0-0.9-0.1-1.8-0.2-2.7c-0.3-1.9-1.3-2.8-3.2-3.1c-1.8-0.3-3.7-0.1-5.5,0.2C337.5,45.4,334.4,46.4,331.3,47.7z"></path>
	<path class="st0" d="M244.6,88.1c-7.5,0-14.8,0-22.2,0c-0.1-1.3-0.1-2.6-0.1-3.9c0-1.3,0-2.6,0-3.9s0-2.6,0-3.9c0-1.3,0-2.5,0-3.8   c0-1.3,0-2.6,0-3.9c0-1.3,0-2.6,0-3.9c0-1.3,0-2.6,0-3.9c0-1.3,0-2.6,0-3.9s0-2.6,0-3.9c0-1.3,0-2.5,0-3.8c0-1.3,0-2.6,0-3.9   c0-1.3,0-2.6,0-4.1c-3.5,0-6.8,0-10.3,0c0-4.5,0-8.8,0-13.2c3.4-0.2,6.7-0.4,10.3-0.7c0-0.6,0-1.1,0-1.5c0.1-3.2,0-6.4,0.2-9.6   c0.1-2.5,0.8-5,1.9-7.3c2.1-4.1,5.5-6.5,9.8-7.8c2.7-0.8,5.5-1.2,8.3-1.2c5.7-0.1,11.4,0.2,17.1,0.7c1.6,0.2,3.1,0.4,4.8,0.7   c-0.7,4.6-1.4,9-2,13.6c-0.5,0-1,0.1-1.4,0.1c-3.1,0-6.1,0-9.2,0c-1.2,0-2.4,0.2-3.5,0.4c-1.9,0.3-3,1.6-3.4,3.4   c-0.1,0.3-0.2,0.6-0.2,1c0,2.5,0,5,0,7.6c1.2,0,2.5,0,3.7,0c1.3,0,2.5,0,3.8,0c1.3,0,2.5,0,3.8,0c1.3,0,2.5,0,3.7,0   c0.3,0.9,0.4,12.1,0.1,13.7c-2.5,0.2-5,0.1-7.5,0.1c-2.5,0-5,0-7.7,0c-0.1,2.7,0,5.3-0.1,7.9c0,2.6,0,5.1,0,7.7c0,2.6,0,5.2,0,7.8   s0,5.2,0,7.8c0,2.6,0,5.1,0,7.7C244.6,82.8,244.6,85.4,244.6,88.1z"></path>
	<path class="st0" d="M30.3,42.3c-9.8,0-19.6,0-29.5,0c0-5,0-9.8,0-14.7c18.4,0,36.8,0,55.3,0c0,0.4,0.1,0.8,0.1,1.2   c0,4.1,0,8.2,0,12.3c0,0.8-0.3,1.4-0.8,2c-9.5,9.6-19,19.2-28.5,28.7c-0.3,0.3-0.8,0.6-1.2,0.9c0.1,0.1,0.2,0.2,0.2,0.2   c0,0,0,0.1,0,0.1c0,0,0,0.1,0.1,0.1c10.2,0,20.4,0,30.6,0c0.3,1,0.4,12.5,0.2,14.7c-0.9,0.2-55.2,0.3-56.7,0c0-0.4-0.1-0.8-0.1-1.3   c0-4.1,0-8.1,0-12.2c0-0.8,0.3-1.4,0.9-2c9.5-9.6,19-19.2,28.5-28.8c0.3-0.3,0.7-0.7,1-1C30.3,42.5,30.3,42.4,30.3,42.3z"></path>
	<path class="st0" d="M271.2,27.6c7.3,0,14.5,0,21.6,0c0.3,0.9,0.4,58.3,0.1,60.4c-0.9,0.2-19.4,0.3-21.7,0.1   C271,87.2,270.9,29.8,271.2,27.6z"></path>
	<path class="st0" d="M96.8,65.2c-7.1,0-14.2,0-21.3,0c-0.7,0-1.4-0.1-2.1-0.2c-2.4-0.5-3.9-1.9-4.2-4.3c-0.2-1.7-0.3-3.5-0.1-5.2   c0.4-3.2,2.3-4.9,5.5-5.1c0.2,0,0.4,0,0.6,0c14.3,0,28.7,0,43,0c0.7,0,1.5,0.1,2.2,0.3c2.1,0.5,3.4,1.9,3.8,4   c0.4,2.1,0.4,4.2,0,6.3c-0.5,2.6-2.5,4.1-5.4,4.2c-1.4,0-2.8,0-4.2,0C108.7,65.2,102.7,65.2,96.8,65.2z"></path>
	<path class="st0" d="M96.9,88.2c-7.1,0-14.2,0-21.3,0c-0.8,0-1.5-0.1-2.3-0.3c-2.3-0.5-3.8-2-4.1-4.3c-0.2-1.7-0.3-3.5-0.1-5.2   c0.4-3.2,2.3-4.9,5.5-5.1c0.3,0,0.7,0,1,0c14.1,0,28.3,0,42.4,0c0.8,0,1.5,0.1,2.3,0.2c2.2,0.5,3.5,1.9,3.9,4   c0.4,2.1,0.5,4.2,0,6.3c-0.6,2.6-2.2,4-5.5,4.3c-1.1,0.1-2.1,0-3.2,0C109.3,88.2,103.1,88.2,96.9,88.2z"></path>
	<path class="st0" d="M413.3,65.2c-7,0-13.9,0-20.9,0c-0.8,0-1.6-0.1-2.4-0.2c-2.3-0.4-3.8-1.8-4.2-4.1c-0.4-2.1-0.4-4.1,0-6.2   c0.5-2.3,2-3.7,4.3-4.1c0.7-0.1,1.5-0.2,2.2-0.2c14,0,28,0,42,0c0.7,0,1.5,0.1,2.2,0.2c2.3,0.4,3.8,1.8,4.3,4.1   c0.4,1.9,0.4,3.8,0.1,5.7c-0.4,3-2.2,4.5-5.3,4.8c-0.5,0-1.1,0-1.6,0C427,65.2,420.1,65.2,413.3,65.2z"></path>
	<path class="st0" d="M413.3,73.3c6.9,0,13.8,0,20.6,0c0.8,0,1.6,0.1,2.4,0.2c2.4,0.4,3.8,1.8,4.3,4.1c0.4,2.1,0.4,4.2,0,6.3   c-0.5,2.2-1.8,3.6-4.1,4c-0.7,0.1-1.5,0.2-2.2,0.2c-14.1,0-28.2,0-42.3,0c-0.8,0-1.5-0.1-2.3-0.3c-2.2-0.4-3.6-1.8-4.1-4   c-0.4-2.1-0.4-4.2,0-6.3c0.5-2.3,2-3.7,4.3-4.1c0.8-0.1,1.7-0.2,2.5-0.2C399.5,73.3,406.4,73.3,413.3,73.3z"></path>
	<path class="st0" d="M96.8,27.5c7.1,0,14.2,0,21.3,0c0.7,0,1.5,0,2.2,0.2c2.2,0.5,3.5,1.8,4,4c0.5,2.1,0.5,4.3,0,6.4   c-0.5,2.4-2.2,3.8-4.6,4.1c-0.5,0.1-1,0.1-1.5,0.1c-14.3,0-28.5,0-42.8,0c-0.8,0-1.6-0.1-2.3-0.2c-2.2-0.5-3.5-1.9-3.9-4   c-0.4-2-0.4-4.1,0-6.2c0.5-2.4,2.2-4,4.8-4.2c0.6-0.1,1.1-0.1,1.7-0.1C82.7,27.5,89.8,27.5,96.8,27.5z"></path>
	<path class="st0" d="M413.2,27.5c6.8,0,13.7,0,20.5,0c0.7,0,1.4,0,2.1,0.1c2.6,0.2,4.3,1.7,4.8,4.2c0.4,2.1,0.4,4.2,0,6.3   c-0.5,2.4-2.2,3.8-4.6,4.1c-0.7,0.1-1.5,0.1-2.2,0.1c-13.8,0-27.5,0-41.3,0c-0.7,0-1.4,0-2.1-0.1c-2.6-0.2-4.3-1.7-4.8-4.3   c-0.4-2-0.4-4.1,0-6.1c0.5-2.5,2.2-4,4.8-4.3c0.7-0.1,1.5-0.1,2.2-0.1C399.6,27.5,406.4,27.5,413.2,27.5z"></path>
	<path class="st0" d="M282.1,0.2c1.7,0,3.4,0,5.1,0c0.8,0,1.6,0.1,2.4,0.4c2,0.6,3.1,2.2,3.4,4.2c0.1,0.8,0.2,1.6,0.2,2.4   c0,2.4,0.1,4.7-0.1,7.1c-0.3,3.4-2.2,5.1-5.7,5.2c-2.4,0.1-4.7,0-7.1,0c-1.6,0-3.2,0-4.8-0.2c-2.9-0.4-4.5-2.2-4.7-5.1   c-0.1-2.9-0.1-5.8,0-8.7c0.2-3.3,2.2-5.2,5.5-5.3C278.3,0.1,280.2,0.2,282.1,0.2C282.1,0.2,282.1,0.2,282.1,0.2z"></path>
</g>
</svg>